<svg width="30" height="29" viewBox="0 0 30 29" fill="none" xmlns="http://www.w3.org/2000/svg">
<path d="M4 8L6.2053 25.3777C6.39551 26.8765 7.67047 28 9.18129 28C13.2694 28 17.963 28 20.8194 28C22.3302 28 23.6038 26.8766 23.794 25.3778L26 8" stroke="#8B8B8B" stroke-width="2"/>
<path d="M19 1H11V4H19V1Z" stroke="#8B8B8B" stroke-width="2" stroke-linejoin="round"/>
<path d="M5 8H2C1.44772 8 1 7.55228 1 7V5C1 4.44772 1.44772 4 2 4H28C28.5523 4 29 4.44772 29 5V7C29 7.55228 28.5523 8 28 8H25" stroke="#8B8B8B" stroke-width="2"/>
</svg>
