<svg width="39" height="35" viewBox="0 0 39 35" fill="none" xmlns="http://www.w3.org/2000/svg">
<path d="M29.25 3.82812H9.75C7.05778 3.82812 4.875 5.78703 4.875 8.20312V25.7031C4.875 28.1192 7.05778 30.0781 9.75 30.0781H20.1094V20.7812H16.4531V16.9531H20.1094V14.2188C20.1094 10.3906 22.5469 8.20312 26.2031 8.20312C28.1123 8.20312 29.25 8.75 29.25 8.75V12.0312H26.8125C25.0697 12.0312 24.375 13.1759 24.375 14.2188V16.9531H28.6406L28.0312 20.7812H24.375V30.0781H29.25C31.9422 30.0781 34.125 28.1192 34.125 25.7031V8.20312C34.125 5.78703 31.9422 3.82812 29.25 3.82812Z" fill="white"/>
</svg>
