<svg width="64" height="64" viewBox="0 0 64 64" fill="none" xmlns="http://www.w3.org/2000/svg">
<mask id="mask0_115_42" style="mask-type:alpha" maskUnits="userSpaceOnUse" x="0" y="0" width="64" height="64">
<rect width="64" height="64" fill="#D9D9D9"/>
</mask>
<g mask="url(#mask0_115_42)">
<path d="M16.7558 10.6842H0V26.8733C0.661892 26.1986 1.36051 25.522 2.1066 24.8445C3.28198 23.7773 4.61558 22.6826 5.50128 21.9679C6.3868 21.253 6.82427 20.9177 7.11602 20.7487C7.40758 20.5791 7.55346 20.5758 8.16609 20.0351C8.77854 19.4943 9.85779 18.416 10.9185 17.4416C11.979 16.4668 13.0211 15.5955 13.7314 15.1137C14.4418 14.6315 14.8206 14.5384 14.9372 14.5749C15.0538 14.6112 14.9081 14.7771 14.5318 15.3779C14.1554 15.9788 13.5482 17.0148 13.0357 17.9328C12.5232 18.8508 12.1053 19.6509 11.9692 20.0763C11.8333 20.5015 11.9793 20.5524 12.3632 20.7379C12.747 20.9235 13.3685 21.2442 13.8276 21.6383C14.2862 22.0323 14.582 22.4998 14.8952 23.0597C15.2083 23.6197 15.5387 24.2719 15.7524 24.8066C15.9659 25.3411 16.0628 25.7581 16.0789 26.0463C16.0948 26.3345 16.0298 26.4936 16.1686 26.82C16.3074 27.1462 16.6498 27.6389 17.0314 28.2164C17.4127 28.7936 17.8331 29.4552 18.305 30.2316C18.7767 31.0076 19.3 31.8984 19.6162 32.4997C19.9324 33.1009 20.0418 33.4129 20.0529 33.6118C20.0641 33.8109 19.9772 33.8969 19.4339 34.1241C18.8909 34.351 17.8915 34.719 17.2845 34.8826C16.6775 35.0459 16.4632 35.0049 15.9705 34.7239C15.4777 34.4428 14.7065 33.922 14.0971 33.4421C13.4875 32.9623 13.0396 32.5238 12.6012 32.1823C12.1626 31.8406 11.7335 31.5963 11.2331 31.3742C10.7327 31.1522 10.1608 30.9526 9.73653 30.7702C9.3123 30.5878 9.03568 30.4228 8.66312 30.5172C8.29038 30.6114 7.82154 30.9652 7.40663 31.6443C6.99139 32.3233 6.62993 33.3274 6.4211 34.6541C6.21212 35.981 6.15592 37.6308 4.52235 41.1356C3.04658 44.3018 1.50027 46.6033 0 48.1748V51.4487H10.8013V40.1511H16.7558C25.2094 40.1511 31.4762 33.9393 31.4762 25.3886C31.4762 16.8474 25.2094 10.6842 16.7558 10.6842V10.6842ZM48.0961 52.9067C57.3259 52.9067 64 48.2867 64 39.3962C64 30.1078 56.3549 28.0906 50.5006 26.5651C46.747 25.5872 43.7225 24.8472 43.7225 22.5373C43.7225 20.6349 45.6065 19.7711 47.5754 19.7711C49.8569 19.7711 51.7408 20.9745 51.7408 23.5467H62.7031C62.7031 15.2578 57.2503 10.24 47.7079 10.24C38.3077 10.24 32.5519 14.8405 32.5519 22.8673C32.5519 32.1265 39.8275 34.2056 45.6443 35.3877C51.6719 36.6128 46.4583 43.9282 43.3912 38.7653H32.0881C32.0881 47.6365 38.3834 52.9067 48.0961 52.9067V52.9067Z" fill="#1E1E1F"/>
<path fill-rule="evenodd" clip-rule="evenodd" d="M47.8097 34.858C47.6398 34.6098 47.4551 34.3394 47.294 34.1157C47.1328 33.8919 46.995 33.7148 46.7396 33.5681C46.4842 33.4214 46.1111 33.305 45.8019 33.3103C45.4926 33.3156 45.2472 33.4425 44.9909 33.6811C44.7346 33.9196 44.4674 34.2698 44.2934 34.5779C44.1196 34.886 44.0389 35.1521 43.9949 35.4356C43.9509 35.7192 43.9436 36.0202 43.9432 36.2839C43.9427 36.5476 43.9493 36.7741 43.8774 36.9987C43.8056 37.2234 43.6554 37.4463 43.4785 37.6514C43.3017 37.8567 43.0981 38.0442 42.9583 38.2112C42.8184 38.3782 42.7423 38.5247 42.7183 38.8077C42.6943 39.0907 42.7227 39.51 42.7849 39.8542C42.8471 40.1983 42.9433 40.4674 43.1259 40.6658C43.3084 40.8641 43.5774 40.9919 43.9341 41.1005C44.2909 41.2092 44.7355 41.2985 45.1128 41.2849C45.4902 41.2714 45.8002 41.1549 46.0777 41.0228C46.3552 40.8908 46.6 40.7432 46.9128 40.6533C47.2257 40.5635 47.6066 40.5312 47.9936 40.5071C48.3807 40.4829 48.774 40.4669 49.0184 40.4409C49.2628 40.4149 49.3582 40.379 49.4869 40.2473C49.6158 40.1157 49.778 39.8883 49.9431 39.5556C50.1082 39.2231 50.2765 38.7854 50.3905 38.4234C50.5046 38.0615 50.5646 37.7754 50.526 37.5541C50.4875 37.3328 50.3503 37.1763 50.1555 36.9722C49.9608 36.7679 49.7083 36.5161 49.3877 36.2724C49.0673 36.0288 48.6787 35.7936 48.4068 35.5629C48.1349 35.3322 47.9797 35.1062 47.8097 34.858V34.858Z" fill="white"/>
<path fill-rule="evenodd" clip-rule="evenodd" d="M52.1256 34.3763C52.1225 34.1312 52.0333 33.8249 51.87 33.5291C51.7067 33.2334 51.4694 32.948 51.2287 32.7576C50.9881 32.5671 50.7443 32.4716 50.4344 32.4564C50.1245 32.4411 49.7488 32.5061 49.4365 32.6165C49.1242 32.7269 48.8756 32.8829 48.6995 33.119C48.5236 33.3551 48.4203 33.6714 48.395 33.979C48.3699 34.2868 48.4226 34.5859 48.511 34.7954C48.5995 35.0049 48.7236 35.1247 49.0362 35.2326C49.3487 35.3404 49.8498 35.4365 50.2769 35.477C50.7041 35.5176 51.0572 35.5026 51.3258 35.4121C51.5944 35.3215 51.7785 35.1552 51.912 34.9802C52.0456 34.8051 52.1287 34.6212 52.1256 34.3763V34.3763Z" fill="white"/>
<path fill-rule="evenodd" clip-rule="evenodd" d="M51.3779 38.5273C51.5649 38.7379 51.8613 38.9802 52.0931 39.1462C52.325 39.3121 52.4923 39.4018 52.7426 39.3735C52.993 39.3453 53.3263 39.1993 53.6161 39.0071C53.9059 38.8149 54.1521 38.5766 54.2986 38.3621C54.4451 38.1474 54.4918 37.9565 54.4695 37.7429C54.4473 37.5294 54.356 37.2933 54.2308 37.0663C54.1058 36.8394 53.9467 36.6218 53.7705 36.4315C53.5942 36.2412 53.4005 36.0781 53.0913 36.0175C52.7822 35.9569 52.3575 35.9987 52.0386 36.0908C51.7198 36.1829 51.507 36.3253 51.353 36.4907C51.1991 36.6561 51.1041 36.8444 51.0611 37.0929C51.0181 37.3414 51.0271 37.6502 51.0703 37.8941C51.1135 38.1378 51.1911 38.3167 51.3779 38.5273V38.5273Z" fill="white"/>
<path fill-rule="evenodd" clip-rule="evenodd" d="M48.9692 44.2555C48.7848 44.4115 48.4992 44.5397 48.1735 44.6031C47.8479 44.6666 47.4821 44.6655 47.1848 44.6003C46.8876 44.5353 46.6589 44.4062 46.4472 44.1736C46.2355 43.9412 46.041 43.6053 45.9212 43.2896C45.8016 42.9739 45.7569 42.6786 45.8188 42.3883C45.8807 42.0981 46.0493 41.8128 46.2619 41.5941C46.4746 41.3755 46.7314 41.2234 46.9444 41.1571C47.1575 41.0909 47.3269 41.1105 47.6092 41.2853C47.8915 41.46 48.2869 41.7899 48.5932 42.0978C48.8996 42.4057 49.1167 42.6916 49.2229 42.9603C49.3292 43.2289 49.3244 43.4804 49.2805 43.698C49.2366 43.9156 49.1534 44.0995 48.9692 44.2555V44.2555Z" fill="white"/>
<path fill-rule="evenodd" clip-rule="evenodd" d="M51.2216 40.1212C51.4992 40.1314 51.8711 40.2066 52.1445 40.2806C52.4179 40.3547 52.5928 40.4277 52.7336 40.6417C52.8744 40.8558 52.9813 41.211 53.0256 41.5618C53.0699 41.9128 53.0517 42.2594 52.9868 42.5127C52.9218 42.766 52.8099 42.926 52.6365 43.0467C52.4633 43.1673 52.2285 43.2486 51.9788 43.2973C51.729 43.3463 51.4644 43.3625 51.2088 43.3476C50.9532 43.3327 50.7066 43.2867 50.4616 43.084C50.2167 42.8814 49.9732 42.5222 49.8356 42.2132C49.6981 41.9042 49.6665 41.6457 49.69 41.4183C49.7136 41.1911 49.7923 40.995 49.9494 40.8007C50.1066 40.6064 50.3421 40.4138 50.5515 40.29C50.7609 40.1662 50.9441 40.1112 51.2216 40.1212V40.1212Z" fill="white"/>
</g>
</svg>
