<svg width="312" height="57" viewBox="0 0 312 57" fill="none" xmlns="http://www.w3.org/2000/svg">
<rect width="296.368" height="45" fill="#DEEFB8"/>
<path d="M5.88076 56.8311V32.8311H8.47167V35.6038H8.78985C8.98682 35.3008 9.25955 34.9144 9.60803 34.4447C9.96409 33.9675 10.4717 33.5432 11.1308 33.172C11.7974 32.7932 12.6989 32.6038 13.8353 32.6038C15.305 32.6038 16.6005 32.9713 17.7217 33.7061C18.8429 34.4409 19.7179 35.4826 20.3467 36.8311C20.9755 38.1796 21.2898 39.7705 21.2898 41.6038C21.2898 43.4523 20.9755 45.0546 20.3467 46.4106C19.7179 47.7591 18.8467 48.8046 17.733 49.547C16.6194 50.2819 15.3353 50.6493 13.8808 50.6493C12.7595 50.6493 11.8618 50.4637 11.1876 50.0925C10.5133 49.7137 9.99439 49.2856 9.63076 48.8084C9.26712 48.3235 8.98682 47.922 8.78985 47.6038H8.56258V56.8311H5.88076ZM8.51712 41.5584C8.51712 42.8766 8.7103 44.0394 9.09667 45.047C9.48303 46.047 10.0474 46.8311 10.7898 47.3993C11.5323 47.9599 12.4414 48.2402 13.5171 48.2402C14.6383 48.2402 15.5739 47.9447 16.3239 47.3538C17.0815 46.7553 17.6497 45.9523 18.0285 44.9447C18.4148 43.9296 18.608 42.8008 18.608 41.5584C18.608 40.3311 18.4186 39.225 18.0398 38.2402C17.6686 37.2478 17.1042 36.4637 16.3467 35.8879C15.5967 35.3046 14.6535 35.0129 13.5171 35.0129C12.4262 35.0129 11.5095 35.2894 10.7671 35.8425C10.0247 36.3879 9.46409 37.1531 9.0853 38.1379C8.70652 39.1152 8.51712 40.2553 8.51712 41.5584ZM32.6989 50.6493C31.0171 50.6493 29.5664 50.2781 28.3467 49.5356C27.1345 48.7856 26.1989 47.7402 25.5398 46.3993C24.8883 45.0508 24.5626 43.4826 24.5626 41.6947C24.5626 39.9069 24.8883 38.3311 25.5398 36.9675C26.1989 35.5963 27.1156 34.5281 28.2898 33.7629C29.4717 32.9902 30.8505 32.6038 32.4262 32.6038C33.3353 32.6038 34.233 32.7553 35.1194 33.0584C36.0058 33.3614 36.8126 33.8538 37.5398 34.5356C38.2671 35.2099 38.8467 36.1038 39.2785 37.2175C39.7103 38.3311 39.9262 39.7023 39.9262 41.3311V42.4675H26.4717V40.1493H37.1989C37.1989 39.1644 37.002 38.2856 36.608 37.5129C36.2217 36.7402 35.6686 36.1303 34.9489 35.6834C34.2368 35.2364 33.3959 35.0129 32.4262 35.0129C31.358 35.0129 30.4338 35.2781 29.6535 35.8084C28.8808 36.3311 28.2861 37.0129 27.8694 37.8538C27.4527 38.6947 27.2444 39.5963 27.2444 40.5584V42.1038C27.2444 43.422 27.4717 44.5394 27.9262 45.4561C28.3883 46.3652 29.0285 47.0584 29.8467 47.5356C30.6648 48.0053 31.6156 48.2402 32.6989 48.2402C33.4035 48.2402 34.0398 48.1417 34.608 47.9447C35.1838 47.7402 35.68 47.4372 36.0967 47.0356C36.5133 46.6266 36.8353 46.119 37.0626 45.5129L39.6535 46.2402C39.3808 47.119 38.9224 47.8917 38.2785 48.5584C37.6345 49.2175 36.8391 49.7326 35.8921 50.1038C34.9452 50.4675 33.8808 50.6493 32.6989 50.6493ZM44.0058 50.2856V32.8311H46.5967V35.4675H46.7785C47.0967 34.6038 47.6724 33.9031 48.5058 33.3652C49.3391 32.8273 50.2785 32.5584 51.3239 32.5584C51.5209 32.5584 51.7671 32.5622 52.0626 32.5697C52.358 32.5773 52.5815 32.5887 52.733 32.6038V35.3311C52.6421 35.3084 52.4338 35.2743 52.108 35.2288C51.7898 35.1758 51.4527 35.1493 51.0967 35.1493C50.2482 35.1493 49.4906 35.3273 48.8239 35.6834C48.1648 36.0319 47.6421 36.5167 47.2558 37.1379C46.877 37.7516 46.6876 38.4523 46.6876 39.2402V50.2856H44.0058ZM68.2756 36.7402L65.8666 37.422C65.715 37.0205 65.4916 36.6303 65.1961 36.2516C64.9082 35.8652 64.5143 35.547 64.0143 35.297C63.5143 35.047 62.8741 34.922 62.0938 34.922C61.0256 34.922 60.1355 35.1682 59.4234 35.6606C58.7188 36.1455 58.3666 36.7629 58.3666 37.5129C58.3666 38.1796 58.609 38.7061 59.0938 39.0925C59.5787 39.4788 60.3363 39.8008 61.3666 40.0584L63.9575 40.6947C65.5181 41.0735 66.6809 41.6531 67.4461 42.4334C68.2113 43.2061 68.5938 44.2023 68.5938 45.422C68.5938 46.422 68.3059 47.3159 67.7302 48.1038C67.162 48.8917 66.3666 49.5129 65.3438 49.9675C64.3211 50.422 63.1317 50.6493 61.7756 50.6493C59.9953 50.6493 58.5219 50.2629 57.3552 49.4902C56.1885 48.7175 55.4499 47.5887 55.1393 46.1038L57.6847 45.4675C57.9272 46.4069 58.3855 47.1114 59.0597 47.5811C59.7416 48.0508 60.6317 48.2856 61.7302 48.2856C62.9802 48.2856 63.9726 48.0205 64.7075 47.4902C65.4499 46.9523 65.8211 46.3084 65.8211 45.5584C65.8211 44.9523 65.609 44.4447 65.1847 44.0356C64.7605 43.619 64.109 43.3084 63.2302 43.1038L60.3211 42.422C58.7226 42.0432 57.5484 41.4561 56.7984 40.6606C56.0559 39.8576 55.6847 38.8538 55.6847 37.6493C55.6847 36.6644 55.9613 35.7932 56.5143 35.0356C57.0749 34.2781 57.8363 33.6834 58.7984 33.2516C59.7681 32.8197 60.8666 32.6038 62.0938 32.6038C63.8211 32.6038 65.1772 32.9826 66.162 33.7402C67.1544 34.4978 67.859 35.4978 68.2756 36.7402ZM79.7217 50.6493C78.1459 50.6493 76.7633 50.2743 75.5739 49.5243C74.3921 48.7743 73.4679 47.725 72.8012 46.3766C72.1421 45.0281 71.8126 43.4523 71.8126 41.6493C71.8126 39.8311 72.1421 38.244 72.8012 36.8879C73.4679 35.5319 74.3921 34.4788 75.5739 33.7288C76.7633 32.9788 78.1459 32.6038 79.7217 32.6038C81.2974 32.6038 82.6762 32.9788 83.858 33.7288C85.0474 34.4788 85.9717 35.5319 86.6308 36.8879C87.2974 38.244 87.6308 39.8311 87.6308 41.6493C87.6308 43.4523 87.2974 45.0281 86.6308 46.3766C85.9717 47.725 85.0474 48.7743 83.858 49.5243C82.6762 50.2743 81.2974 50.6493 79.7217 50.6493ZM79.7217 48.2402C80.9186 48.2402 81.9035 47.9334 82.6762 47.3197C83.4489 46.7061 84.0209 45.8993 84.3921 44.8993C84.7633 43.8993 84.9489 42.8159 84.9489 41.6493C84.9489 40.4826 84.7633 39.3955 84.3921 38.3879C84.0209 37.3803 83.4489 36.5659 82.6762 35.9447C81.9035 35.3235 80.9186 35.0129 79.7217 35.0129C78.5247 35.0129 77.5398 35.3235 76.7671 35.9447C75.9944 36.5659 75.4224 37.3803 75.0512 38.3879C74.68 39.3955 74.4944 40.4826 74.4944 41.6493C74.4944 42.8159 74.68 43.8993 75.0512 44.8993C75.4224 45.8993 75.9944 46.7061 76.7671 47.3197C77.5398 47.9334 78.5247 48.2402 79.7217 48.2402ZM94.4063 39.7856V50.2856H91.7245V32.8311H94.3154V35.5584H94.5427C94.9518 34.672 95.573 33.9599 96.4063 33.422C97.2397 32.8766 98.3154 32.6038 99.6336 32.6038C100.815 32.6038 101.85 32.8463 102.736 33.3311C103.622 33.8084 104.312 34.5356 104.804 35.5129C105.296 36.4826 105.543 37.7099 105.543 39.1947V50.2856H102.861V39.3766C102.861 38.0053 102.505 36.9372 101.793 36.172C101.081 35.3993 100.103 35.0129 98.8609 35.0129C98.0048 35.0129 97.2397 35.1985 96.5654 35.5697C95.8988 35.9409 95.3722 36.4826 94.9859 37.1947C94.5995 37.9069 94.4063 38.7705 94.4063 39.7856ZM115.58 50.6947C114.474 50.6947 113.47 50.4864 112.568 50.0697C111.667 49.6455 110.951 49.0356 110.421 48.2402C109.89 47.4372 109.625 46.4675 109.625 45.3311C109.625 44.3311 109.822 43.5205 110.216 42.8993C110.61 42.2705 111.136 41.7781 111.796 41.422C112.455 41.0659 113.182 40.8008 113.977 40.6266C114.78 40.4447 115.587 40.3008 116.398 40.1947C117.458 40.0584 118.318 39.9561 118.977 39.8879C119.644 39.8122 120.129 39.6872 120.432 39.5129C120.743 39.3387 120.898 39.0356 120.898 38.6038V38.5129C120.898 37.3917 120.591 36.5205 119.977 35.8993C119.371 35.2781 118.451 34.9675 117.216 34.9675C115.936 34.9675 114.932 35.2478 114.205 35.8084C113.477 36.369 112.966 36.9675 112.671 37.6038L110.125 36.6947C110.58 35.6341 111.186 34.8084 111.943 34.2175C112.708 33.619 113.542 33.2023 114.443 32.9675C115.352 32.725 116.246 32.6038 117.125 32.6038C117.686 32.6038 118.33 32.672 119.057 32.8084C119.792 32.9372 120.5 33.2061 121.182 33.6152C121.871 34.0243 122.443 34.6417 122.898 35.4675C123.352 36.2932 123.58 37.3993 123.58 38.7856V50.2856H120.898V47.922H120.761C120.58 48.3008 120.277 48.7061 119.852 49.1379C119.428 49.5697 118.864 49.9372 118.159 50.2402C117.455 50.5432 116.595 50.6947 115.58 50.6947ZM115.989 48.2856C117.049 48.2856 117.943 48.0773 118.671 47.6606C119.405 47.244 119.958 46.7061 120.33 46.047C120.708 45.3879 120.898 44.6947 120.898 43.9675V41.5129C120.784 41.6493 120.534 41.7743 120.148 41.8879C119.769 41.994 119.33 42.0887 118.83 42.172C118.337 42.2478 117.856 42.3159 117.386 42.3766C116.924 42.4296 116.549 42.475 116.261 42.5129C115.564 42.6038 114.913 42.7516 114.307 42.9561C113.708 43.1531 113.224 43.4523 112.852 43.8538C112.489 44.2478 112.307 44.7856 112.307 45.4675C112.307 46.3993 112.652 47.1038 113.341 47.5811C114.038 48.0508 114.921 48.2856 115.989 48.2856ZM131.156 27.0129V50.2856H128.475V27.0129H131.156ZM152.159 50.6493C150.583 50.6493 149.201 50.2743 148.011 49.5243C146.83 48.7743 145.905 47.725 145.239 46.3766C144.58 45.0281 144.25 43.4523 144.25 41.6493C144.25 39.8311 144.58 38.244 145.239 36.8879C145.905 35.5319 146.83 34.4788 148.011 33.7288C149.201 32.9788 150.583 32.6038 152.159 32.6038C153.735 32.6038 155.114 32.9788 156.296 33.7288C157.485 34.4788 158.409 35.5319 159.068 36.8879C159.735 38.244 160.068 39.8311 160.068 41.6493C160.068 43.4523 159.735 45.0281 159.068 46.3766C158.409 47.725 157.485 48.7743 156.296 49.5243C155.114 50.2743 153.735 50.6493 152.159 50.6493ZM152.159 48.2402C153.356 48.2402 154.341 47.9334 155.114 47.3197C155.886 46.7061 156.458 45.8993 156.83 44.8993C157.201 43.8993 157.386 42.8159 157.386 41.6493C157.386 40.4826 157.201 39.3955 156.83 38.3879C156.458 37.3803 155.886 36.5659 155.114 35.9447C154.341 35.3235 153.356 35.0129 152.159 35.0129C150.962 35.0129 149.977 35.3235 149.205 35.9447C148.432 36.5659 147.86 37.3803 147.489 38.3879C147.118 39.3955 146.932 40.4826 146.932 41.6493C146.932 42.8159 147.118 43.8993 147.489 44.8993C147.86 45.8993 148.432 46.7061 149.205 47.3197C149.977 47.9334 150.962 48.2402 152.159 48.2402ZM171.935 32.8311V35.1038H162.526V32.8311H171.935ZM165.344 50.2856V30.422C165.344 29.422 165.579 28.5887 166.048 27.922C166.518 27.2553 167.128 26.7553 167.878 26.422C168.628 26.0887 169.42 25.922 170.253 25.922C170.912 25.922 171.45 25.975 171.867 26.0811C172.283 26.1872 172.594 26.2856 172.798 26.3766L172.026 28.6947C171.889 28.6493 171.7 28.5925 171.457 28.5243C171.223 28.4561 170.912 28.422 170.526 28.422C169.639 28.422 168.999 28.6455 168.605 29.0925C168.219 29.5394 168.026 30.1947 168.026 31.0584V50.2856H165.344ZM183.466 32.8311V35.1038H174.057V32.8311H183.466ZM176.875 50.2856V30.422C176.875 29.422 177.11 28.5887 177.58 27.922C178.049 27.2553 178.659 26.7553 179.409 26.422C180.159 26.0887 180.951 25.922 181.784 25.922C182.443 25.922 182.981 25.975 183.398 26.0811C183.814 26.1872 184.125 26.2856 184.33 26.3766L183.557 28.6947C183.421 28.6493 183.231 28.5925 182.989 28.5243C182.754 28.4561 182.443 28.422 182.057 28.422C181.171 28.422 180.53 28.6455 180.136 29.0925C179.75 29.5394 179.557 30.1947 179.557 31.0584V50.2856H176.875ZM193.824 50.6493C192.142 50.6493 190.691 50.2781 189.472 49.5356C188.26 48.7856 187.324 47.7402 186.665 46.3993C186.013 45.0508 185.688 43.4826 185.688 41.6947C185.688 39.9069 186.013 38.3311 186.665 36.9675C187.324 35.5963 188.241 34.5281 189.415 33.7629C190.597 32.9902 191.975 32.6038 193.551 32.6038C194.46 32.6038 195.358 32.7553 196.244 33.0584C197.131 33.3614 197.938 33.8538 198.665 34.5356C199.392 35.2099 199.972 36.1038 200.403 37.2175C200.835 38.3311 201.051 39.7023 201.051 41.3311V42.4675H187.597V40.1493H198.324C198.324 39.1644 198.127 38.2856 197.733 37.5129C197.347 36.7402 196.794 36.1303 196.074 35.6834C195.362 35.2364 194.521 35.0129 193.551 35.0129C192.483 35.0129 191.559 35.2781 190.778 35.8084C190.006 36.3311 189.411 37.0129 188.994 37.8538C188.578 38.6947 188.369 39.5963 188.369 40.5584V42.1038C188.369 43.422 188.597 44.5394 189.051 45.4561C189.513 46.3652 190.153 47.0584 190.972 47.5356C191.79 48.0053 192.741 48.2402 193.824 48.2402C194.528 48.2402 195.165 48.1417 195.733 47.9447C196.309 47.7402 196.805 47.4372 197.222 47.0356C197.638 46.6266 197.96 46.119 198.188 45.5129L200.778 46.2402C200.506 47.119 200.047 47.8917 199.403 48.5584C198.76 49.2175 197.964 49.7326 197.017 50.1038C196.07 50.4675 195.006 50.6493 193.824 50.6493ZM205.131 50.2856V32.8311H207.722V35.4675H207.903C208.222 34.6038 208.797 33.9031 209.631 33.3652C210.464 32.8273 211.403 32.5584 212.449 32.5584C212.646 32.5584 212.892 32.5622 213.188 32.5697C213.483 32.5773 213.707 32.5887 213.858 32.6038V35.3311C213.767 35.3084 213.559 35.2743 213.233 35.2288C212.915 35.1758 212.578 35.1493 212.222 35.1493C211.373 35.1493 210.616 35.3273 209.949 35.6834C209.29 36.0319 208.767 36.5167 208.381 37.1379C208.002 37.7516 207.813 38.4523 207.813 39.2402V50.2856H205.131ZM229.401 36.7402L226.992 37.422C226.84 37.0205 226.617 36.6303 226.321 36.2516C226.033 35.8652 225.639 35.547 225.139 35.297C224.639 35.047 223.999 34.922 223.219 34.922C222.151 34.922 221.26 35.1682 220.548 35.6606C219.844 36.1455 219.492 36.7629 219.492 37.5129C219.492 38.1796 219.734 38.7061 220.219 39.0925C220.704 39.4788 221.461 39.8008 222.492 40.0584L225.082 40.6947C226.643 41.0735 227.806 41.6531 228.571 42.4334C229.336 43.2061 229.719 44.2023 229.719 45.422C229.719 46.422 229.431 47.3159 228.855 48.1038C228.287 48.8917 227.492 49.5129 226.469 49.9675C225.446 50.422 224.257 50.6493 222.901 50.6493C221.12 50.6493 219.647 50.2629 218.48 49.4902C217.314 48.7175 216.575 47.5887 216.264 46.1038L218.81 45.4675C219.052 46.4069 219.51 47.1114 220.185 47.5811C220.867 48.0508 221.757 48.2856 222.855 48.2856C224.105 48.2856 225.098 48.0205 225.832 47.4902C226.575 46.9523 226.946 46.3084 226.946 45.5584C226.946 44.9523 226.734 44.4447 226.31 44.0356C225.885 43.619 225.234 43.3084 224.355 43.1038L221.446 42.422C219.848 42.0432 218.673 41.4561 217.923 40.6606C217.181 39.8576 216.81 38.8538 216.81 37.6493C216.81 36.6644 217.086 35.7932 217.639 35.0356C218.2 34.2781 218.961 33.6834 219.923 33.2516C220.893 32.8197 221.992 32.6038 223.219 32.6038C224.946 32.6038 226.302 32.9826 227.287 33.7402C228.279 34.4978 228.984 35.4978 229.401 36.7402Z" fill="#1E1E1F"/>
</svg>
