<svg width="34" height="34" viewBox="0 0 34 34" fill="none" xmlns="http://www.w3.org/2000/svg">
<path fill-rule="evenodd" clip-rule="evenodd" d="M25.1396 30.3186C25.5502 30.6093 26.0792 30.6819 26.551 30.5034C27.0227 30.3237 27.3695 29.9208 27.474 29.4324C28.5819 24.2253 31.2696 11.0456 32.2781 6.30899C32.3546 5.95199 32.2271 5.58096 31.9466 5.34254C31.6661 5.10411 31.2773 5.03526 30.9305 5.16404C25.5845 7.14284 9.12085 13.3202 2.39155 15.8103C1.96444 15.9684 1.68649 16.379 1.70052 16.829C1.71582 17.2804 2.01925 17.6718 2.45658 17.8032C5.47443 18.7059 9.43577 19.9617 9.43577 19.9617C9.43577 19.9617 11.287 25.5526 12.2522 28.3959C12.3733 28.7529 12.6525 29.0334 13.021 29.1303C13.3882 29.2258 13.7809 29.1252 14.055 28.8663C15.6053 27.4026 18.0023 25.1395 18.0023 25.1395C18.0023 25.1395 22.5565 28.4787 25.1396 30.3186ZM11.1021 19.2553L13.2428 26.3163L13.7184 21.8449C13.7184 21.8449 21.9892 14.3849 26.704 10.1327C26.8417 10.0078 26.8609 9.79866 26.7461 9.65204C26.6325 9.50541 26.4235 9.47099 26.2667 9.57044C20.8021 13.0601 11.1021 19.2553 11.1021 19.2553Z" fill="white"/>
</svg>
