<svg width="43" height="42" viewBox="0 0 43 42" fill="none" xmlns="http://www.w3.org/2000/svg">
<path fill-rule="evenodd" clip-rule="evenodd" d="M42.0134 12.1464C42.3122 11.1975 42.0134 10.5 40.5907 10.5H35.8865C34.6903 10.5 34.1388 11.1024 33.8399 11.7667C33.8399 11.7667 31.4478 17.319 28.0586 20.9254C26.9623 21.9694 26.4639 22.3016 25.8658 22.3016C25.5667 22.3016 25.1339 21.9694 25.1339 21.0204V12.1464C25.1339 11.0074 24.7869 10.5 23.79 10.5H16.3976C15.6499 10.5 15.2004 11.0285 15.2004 11.5296C15.2004 12.6091 16.8949 12.8583 17.0696 15.8952V22.4914C17.0696 23.9377 16.7954 24.2 16.1973 24.2C14.6026 24.2 10.7233 18.6228 8.42258 12.2415C7.97164 11.001 7.51937 10.5 6.31711 10.5H1.61288C0.268812 10.5 0 11.1024 0 11.7667C0 12.953 1.59473 18.8374 7.42561 26.62C11.313 31.9347 16.79 34.8157 21.7739 34.8157C24.7641 34.8157 25.1339 34.1758 25.1339 33.0737V29.0569C25.1339 27.7769 25.4173 27.5218 26.3642 27.5218C27.0616 27.5218 28.2579 27.8538 31.0488 30.4162C34.2388 33.4534 34.7646 34.8157 36.5586 34.8157H41.2628C42.6068 34.8157 43.2789 34.1758 42.891 32.9131C42.467 31.6544 40.944 29.8284 38.9234 27.6641C37.8271 26.43 36.1821 25.1017 35.684 24.4371C34.9859 23.5828 35.1856 23.2031 35.684 22.4437C35.684 22.4437 41.4152 14.7566 42.0134 12.1464Z" fill="white"/>
</svg>
